<?xml version="1.0" standalone="no"?>
<!DOCTYPE svg PUBLIC "-//W3C//DTD SVG 20010904//EN"
 "http://www.w3.org/TR/2001/REC-SVG-20010904/DTD/svg10.dtd">
<svg version="1.0" xmlns="http://www.w3.org/2000/svg"
 width="256.000000pt" height="256.000000pt" viewBox="0 0 256.000000 256.000000"
 preserveAspectRatio="xMidYMid meet">

<g transform="translate(0.000000,256.000000) scale(0.100000,-0.100000)"
fill="#000000" stroke="none">
<path d="M1160 2475 c-8 -2 -49 -9 -90 -15 -358 -58 -694 -309 -862 -645 -89
-177 -122 -320 -123 -530 0 -163 11 -239 56 -377 97 -300 319 -557 607 -702
85 -43 216 -87 317 -107 103 -21 349 -18 455 5 362 78 668 314 834 644 84 168
121 329 121 532 0 157 -12 236 -56 372 -129 399 -465 705 -879 799 -78 18
-338 35 -380 24z m-143 -657 l53 -52 -82 -83 -83 -83 286 0 c158 0 310 -5 340
-10 246 -47 421 -296 380 -542 -25 -153 -126 -290 -261 -356 -86 -42 -145 -52
-311 -52 l-139 0 0 79 0 79 158 4 c145 3 161 5 213 29 199 94 248 356 95 512
-21 20 -61 50 -89 65 l-52 27 -305 3 -305 3 80 -81 80 -80 -57 -57 -56 -56
-176 179 -175 179 172 173 c95 94 174 172 177 172 2 0 28 -24 57 -52z"/>
</g>
</svg>
